<svg xmlns="http://www.w3.org/2000/svg" width="960" height="940" viewBox="0 0 960 940"><title>Deadlock manifestation rate</title><desc>Share of runs producing an active wait-for cycle; higher means the schedule exposed the intended deadlock more often.</desc><style>text{font:14px sans-serif;fill:#222}</style><text x="20" y="88">two_lock: deloxide</text><rect x="310" y="70" width="95.20" height="24" fill="#e66a2c"/><text x="415.20" y="88">17.0%</text><text x="20" y="130">two_lock: deloxide_random_default</text><rect x="310" y="112" width="330.96" height="24" fill="#e66a2c"/><text x="650.96" y="130">59.1%</text><text x="20" y="172">two_lock: deloxide_aggressive</text><rect x="310" y="154" width="468.72" height="24" fill="#e66a2c"/><text x="788.72" y="172">83.7%</text><text x="20" y="214">two_lock: deloxide_component_based_delays</text><rect x="310" y="196" width="559.44" height="24" fill="#e66a2c"/><text x="879.44" y="214">99.9%</text><text x="20" y="256">three_lock_cycle: deloxide</text><rect x="310" y="238" width="449.12" height="24" fill="#e66a2c"/><text x="769.12" y="256">80.2%</text><text x="20" y="298">three_lock_cycle: deloxide_random_default</text><rect x="310" y="280" width="548.24" height="24" fill="#e66a2c"/><text x="868.24" y="298">97.9%</text><text x="20" y="340">three_lock_cycle: deloxide_aggressive</text><rect x="310" y="322" width="558.88" height="24" fill="#e66a2c"/><text x="878.88" y="340">99.8%</text><text x="20" y="382">three_lock_cycle: deloxide_component_based_delays</text><rect x="310" y="364" width="560.00" height="24" fill="#e66a2c"/><text x="880.00" y="382">100.0%</text><text x="20" y="424">dining_philosophers: deloxide</text><rect x="310" y="406" width="203.28" height="24" fill="#e66a2c"/><text x="523.28" y="424">36.3%</text><text x="20" y="466">dining_philosophers: deloxide_random_default</text><rect x="310" y="448" width="386.40" height="24" fill="#e66a2c"/><text x="706.40" y="466">69.0%</text><text x="20" y="508">dining_philosophers: deloxide_aggressive</text><rect x="310" y="490" width="486.64" height="24" fill="#e66a2c"/><text x="806.64" y="508">86.9%</text><text x="20" y="550">dining_philosophers: deloxide_component_based_delays</text><rect x="310" y="532" width="559.44" height="24" fill="#e66a2c"/><text x="879.44" y="550">99.9%</text><text x="20" y="592">rwlock_deadlock: deloxide</text><rect x="310" y="574" width="188.16" height="24" fill="#e66a2c"/><text x="508.16" y="592">33.6%</text><text x="20" y="634">rwlock_deadlock: deloxide_random_default</text><rect x="310" y="616" width="396.48" height="24" fill="#e66a2c"/><text x="716.48" y="634">70.8%</text><text x="20" y="676">rwlock_deadlock: deloxide_aggressive</text><rect x="310" y="658" width="488.88" height="24" fill="#e66a2c"/><text x="808.88" y="676">87.3%</text><text x="20" y="718">rwlock_deadlock: deloxide_component_based_delays</text><rect x="310" y="700" width="560.00" height="24" fill="#e66a2c"/><text x="880.00" y="718">100.0%</text><text x="20" y="760">five_lock_cycle: deloxide</text><rect x="310" y="742" width="560.00" height="24" fill="#e66a2c"/><text x="880.00" y="760">100.0%</text><text x="20" y="802">five_lock_cycle: deloxide_random_default</text><rect x="310" y="784" width="560.00" height="24" fill="#e66a2c"/><text x="880.00" y="802">100.0%</text><text x="20" y="844">five_lock_cycle: deloxide_aggressive</text><rect x="310" y="826" width="560.00" height="24" fill="#e66a2c"/><text x="880.00" y="844">100.0%</text><text x="20" y="886">five_lock_cycle: deloxide_component_based_delays</text><rect x="310" y="868" width="560.00" height="24" fill="#e66a2c"/><text x="880.00" y="886">100.0%</text></svg>
